<?xml version="1.0" encoding="utf-8"?>
<!-- Generator: Adobe Illustrator 28.2.0, SVG Export Plug-In . SVG Version: 6.00 Build 0)  -->
<svg version="1.1" id="Layer_1" xmlns="http://www.w3.org/2000/svg" xmlns:xlink="http://www.w3.org/1999/xlink" x="0px" y="0px"
	 viewBox="0 0 4840.85 653.26" style="enable-background:new 0 0 4840.85 653.26;" xml:space="preserve">
<style type="text/css">
	.st0{fill:url(#SVGID_1_);}
</style>
<path d="M2554.25,604.92c-158.48,0-236.76-105.26-194.78-261.92c42.63-159.11,180.15-261.93,350.35-261.93
	c61.77,0,120.03,14.84,173.3,44.13l-25.57,95.45c-51.86-25.73-105.03-39.24-154.84-39.24c-106.24,0-189.07,62.8-216.16,163.88
	c-25.53,95.29,15.23,159.32,101.42,159.32c66.19,0,127.73-38.4,160.62-100.22l9.4-17.68h-143.35L2634,314.5h262.15
	c-20.92,88.1-65.13,161.98-128.38,214.27C2707.52,578.59,2633.68,604.92,2554.25,604.92z"/>
<path d="M2986.71,601.12c-93.1,0-124.84-43.36-99.9-136.46l100.13-373.7h116.29l-94.83,353.93c-10.84,40.47,5.47,62.75,45.94,62.75
	c10.09,0,20.89-1.12,31.64-3.23l-24.08,89.86C3033.56,598.81,3008.32,601.12,2986.71,601.12z"/>
<path d="M3277.39,604.92c-124.67,0-190.59-78.94-160.3-191.97s138.51-191.97,263.18-191.97c124.67,0,190.59,78.94,160.3,191.97
	S3402.06,604.92,3277.39,604.92z M3355.22,314.46c-58,0-107.58,39.58-123.36,98.49c-15.78,58.91,12.58,98.49,70.58,98.49
	c58,0,107.57-39.58,123.36-98.49C3441.58,354.04,3413.22,314.46,3355.22,314.46z"/>
<path d="M3751.24,603.4c-48.5,0-88.67-16.75-113.1-47.16l-7.98-9.93l-55.68,48.72h-56.31l135.07-504.08h116.29l-48.04,179.29
	l26.71-16.21c34.47-20.92,71.62-31.53,110.43-31.53c104.07,0,155.77,78.32,125.73,190.45
	C3954.31,525.08,3858.45,603.4,3751.24,603.4z M3798.25,314.46c-57.09,0-107.82,40.5-123.36,98.49
	c-15.54,57.99,13.49,98.49,70.58,98.49c58.45,0,108.33-39.58,124.12-98.49C3885.37,354.04,3856.7,314.46,3798.25,314.46z"/>
<path d="M4141.17,603.4c-106.32,0-159.58-78.32-129.53-190.45c30.05-112.13,125.28-190.45,231.59-190.45
	c48.97,0,88.73,16.94,111.96,47.7l8.01,10.61l55.43-49.94h57.67l-97.58,364.17h-57.6l-28.5-50.92l-13.88,10.95
	C4239.22,586.23,4190.36,603.4,4141.17,603.4z M4249.76,314.46c-58,0-107.57,39.58-123.36,98.49s12.58,98.49,70.58,98.49
	c58,0,107.58-39.58,123.36-98.49C4336.13,354.04,4307.76,314.46,4249.76,314.46z"/>
<path d="M4573.87,601.12c-93.1,0-124.84-43.36-99.9-136.46l100.13-373.7h116.29l-94.83,353.93c-10.84,40.47,5.47,62.75,45.94,62.75
	c10.09,0,20.89-1.12,31.64-3.23l-24.08,89.86C4620.71,598.81,4595.47,601.12,4573.87,601.12z"/>
<linearGradient id="SVGID_1_" gradientUnits="userSpaceOnUse" x1="2040.4467" y1="599.0145" x2="2040.4467" y2="109.7837">
	<stop  offset="0" style="stop-color:#F90621"/>
	<stop  offset="0.2875" style="stop-color:#FC3627"/>
	<stop  offset="0.5906" style="stop-color:#FF652D"/>
</linearGradient>
<path class="st0" d="M1973.94,282.72L2108,111.77c3.02-3.85,9.2-1.74,9.23,3.15l1.13,166.63c0.02,3.57,1.81,6.7,4.51,8.62
	l-138.94-0.35C1979.31,289.82,1975.41,286.85,1973.94,282.72z M2339.6,292.7l-141.08-0.35c1.81,2.36,1.55,6.19-1.74,7.81
	l-223.09,109.53l-0.1,81.51l136.62,106.71c3.39,2.65,8.34,0.24,8.35-4.07l0.21-181.82l223.09-109.53
	C2346.77,300.09,2345.07,292.71,2339.6,292.7z M1822.01,483.78l-7.53,3.66l-77.23,99.48c-3.35,4.32,1.42,10.2,6.34,7.81
	l135.91-66.05L1822.01,483.78z"/>
<g>
	<path d="M512.52,47.89H282.89L150.18,580.14h155.88l34.5-138.39h73.75c136.11,0,235.86-73.76,266.57-196.94
		C711.6,121.64,648.63,47.89,512.52,47.89z M530.53,247.1c-11,44.1-46.34,69.95-95.76,69.95h-69.19l34.88-139.91h69.19
		C519.07,177.15,541.33,203.76,530.53,247.1z"/>
	<path d="M1001.09,187.79c-18.45-5.32-36.89-7.6-54.38-7.6c-44.86,0-82.87,15.21-118.2,50.18l-28.17-42.58h-72.23l-97.82,392.35
		h144.47l46.45-186.29c14.03-56.27,49.93-87.44,100.11-87.44c14.45,0,29.85,2.28,48.3,7.6L1001.09,187.79z"/>
	<path d="M1237.35,177.91c-129.26,0-240.98,85.16-271.12,206.06c-31.09,124.7,45.95,206.06,194.98,206.06
		c49.42,0,102.64-9.12,161.74-26.61l26.92-107.97c-52.07,16.73-99.02,25.09-141.6,25.09c-63.88,0-101.9-18.25-108.2-50.94h290.46
		C1450.13,288.16,1387.9,177.91,1237.35,177.91z M1118.09,345.19c18.03-35.74,52.61-58.55,93.67-58.55
		c40.3,0,62.37,21.29,62.96,58.55H1118.09z"/>
	<path d="M1665.91,179.19c-118.18,0-209.29,41.26-209.29,119.62c0,59.66,177.91,136.88,169.03,163.35
		c-6.69,19.92-36.03,22.94-67.96,22.94c-43.34,0-92.59-15.97-138.42-45.62v0l0,0l-12.39,49.69l-15.48,62.08v0l0,0
		c4.04,2.18,8.26,4.26,12.57,6.28c40.8,19.13,93.38,30.98,147.7,30.98c0.02,0,0.04,0,0.06,0c83.45-0.01,150.65-20.29,182.28-69.91
		c9.28-14.56,15.31-26.4,18.96-45.61c5.72-30.07-14.65-52.7-25.47-62.76l-138.25-110.64c-3.83-3.04-1.69-9.2,3.2-9.21l216.82-0.54
		c7.69-0.02,14.95-3.56,19.7-9.62l36.11-46.05C1830.44,212.73,1763.58,179.19,1665.91,179.19z"/>
</g>
</svg>
